<svg aria-hidden="true" style="position: absolute; width: 0; height: 0; overflow: hidden;" version="1.1" xmlns="http://www.w3.org/2000/svg" xmlns:xlink="http://www.w3.org/1999/xlink">
<defs>
<symbol id="icon-x" viewBox="0 0 32 32">
<title>x</title>
<path d="M30 24.398l-8.406-8.398 8.406-8.398-5.602-5.602-8.398 8.402-8.402-8.402-5.598 5.602 8.398 8.398-8.398 8.398 5.598 5.602 8.402-8.402 8.398 8.402z"></path>
</symbol>
<symbol id="icon-map" viewBox="0 0 32 32">
<title>map</title>
<path d="M0 6l10-4v24l-10 4z"></path>
<path d="M12 1l10 6v23l-10-5z"></path>
<path d="M24 7l8-6v24l-8 6z"></path>
</symbol>
<symbol id="icon-compass" viewBox="0 0 32 32">
<title>compass</title>
<path d="M0 16c0 8.822 7.178 16 16 16s16-7.178 16-16-7.178-16-16-16-16 7.178-16 16zM16 1c8.271 0 15 6.729 15 15s-6.729 15-15 15-15-6.729-15-15 6.729-15 15-15zM16 29c7.168 0 13-5.832 13-13s-5.832-13-13-13-13 5.832-13 13 5.832 13 13 13zM15 4.051v1.526c0 0.276 0.224 0.5 0.5 0.5s0.5-0.224 0.5-0.5v-1.577c6.279 0 11.438 4.85 11.949 11h-1.527c-0.276 0-0.5 0.224-0.5 0.5s0.224 0.5 0.5 0.5h1.578c0 6.617-5.383 12-12 12v-1.577c0-0.276-0.224-0.5-0.5-0.5s-0.5 0.224-0.5 0.5v1.526c-6.149-0.511-11-5.669-11-11.949h1.578c0.276 0 0.5-0.224 0.5-0.5s-0.224-0.5-0.5-0.5h-1.527c0.483-5.819 5.13-10.466 10.949-10.949zM9.386 23.041c0.102 0 0.204-0.031 0.292-0.094l5.614-4.036c0.228 0.056 0.463 0.093 0.708 0.093 1.654 0 3-1.346 3-3 0-0.237-0.035-0.465-0.087-0.687l4.106-5.712c0.143-0.199 0.121-0.473-0.052-0.646s-0.446-0.193-0.646-0.053l-5.778 4.153c-0.177-0.033-0.358-0.055-0.544-0.055-1.654 0-3 1.346-3 3 0 0.195 0.022 0.386 0.058 0.571l-4.077 5.674c-0.143 0.199-0.121 0.473 0.052 0.646 0.097 0.096 0.225 0.146 0.354 0.146zM14 16.005c0-1.103 0.897-2 2-2s2 0.897 2 2-0.897 2-2 2-2-0.898-2-2zM20.424 11.503l-1.987 2.765c-0.216-0.301-0.482-0.563-0.792-0.767l2.779-1.998zM13.505 17.667c0.199 0.298 0.454 0.553 0.743 0.763l-2.672 1.921 1.929-2.684z"></path>
</symbol>
<symbol id="icon-x1" viewBox="0 0 24 24">
<title>x1</title>
<path d="M5.293 6.707l5.293 5.293-5.293 5.293c-0.391 0.391-0.391 1.024 0 1.414s1.024 0.391 1.414 0l5.293-5.293 5.293 5.293c0.391 0.391 1.024 0.391 1.414 0s0.391-1.024 0-1.414l-5.293-5.293 5.293-5.293c0.391-0.391 0.391-1.024 0-1.414s-1.024-0.391-1.414 0l-5.293 5.293-5.293-5.293c-0.391-0.391-1.024-0.391-1.414 0s-0.391 1.024 0 1.414z"></path>
</symbol>
<symbol id="icon-map1" viewBox="0 0 20 20">
<title>map1</title>
<path d="M19.447 3.718l-6-3c-0.281-0.141-0.613-0.141-0.895 0l-5.63 2.815-5.606-1.869c-0.306-0.102-0.64-0.051-0.901 0.138s-0.415 0.49-0.415 0.811v13.001c0 0.379 0.214 0.725 0.553 0.894l6 3c0.141 0.070 0.294 0.106 0.447 0.106s0.307-0.035 0.447-0.106l5.63-2.814 5.606 1.869c0.305 0.1 0.64 0.049 0.901-0.139s0.415-0.49 0.415-0.81v-13.002c0.001-0.379-0.213-0.725-0.552-0.894zM8 5.231l4-2v11.763l-4 2v-11.763zM2 4l4 1.333v11.661l-4-2v-10.994zM18 16.227l-4-1.334v-11.662l4 2v10.996z"></path>
</symbol>
</defs>
</svg>
